<mxfile host="app.diagrams.net" modified="2023-11-15T17:01:48.844Z" agent="Mozilla/5.0 (Windows NT 10.0; Win64; x64) AppleWebKit/537.36 (KHTML, like Gecko) Chrome/119.0.0.0 Safari/537.36" etag="44g5EXhE9vtSSdqi1pjQ" version="22.1.1" type="device" pages="6">
  <diagram name="bài 1" id="F51bBAz-0WiinA_kA0H1">
    <mxGraphModel dx="1109" dy="764" grid="1" gridSize="10" guides="1" tooltips="1" connect="1" arrows="1" fold="1" page="1" pageScale="1" pageWidth="827" pageHeight="1169" math="0" shadow="0">
      <root>
        <mxCell id="0" />
        <mxCell id="1" parent="0" />
        <mxCell id="0xR9UL-NpGyo--8yPLQt-3" style="edgeStyle=orthogonalEdgeStyle;rounded=0;orthogonalLoop=1;jettySize=auto;html=1;entryX=0.5;entryY=0;entryDx=0;entryDy=0;" parent="1" source="0xR9UL-NpGyo--8yPLQt-1" target="0xR9UL-NpGyo--8yPLQt-2" edge="1">
          <mxGeometry relative="1" as="geometry" />
        </mxCell>
        <mxCell id="0xR9UL-NpGyo--8yPLQt-1" value="start" style="ellipse;whiteSpace=wrap;html=1;" parent="1" vertex="1">
          <mxGeometry x="320" y="120" width="120" height="80" as="geometry" />
        </mxCell>
        <mxCell id="0xR9UL-NpGyo--8yPLQt-8" style="edgeStyle=orthogonalEdgeStyle;rounded=0;orthogonalLoop=1;jettySize=auto;html=1;entryX=0.5;entryY=0;entryDx=0;entryDy=0;" parent="1" source="0xR9UL-NpGyo--8yPLQt-2" target="0xR9UL-NpGyo--8yPLQt-5" edge="1">
          <mxGeometry relative="1" as="geometry" />
        </mxCell>
        <mxCell id="0xR9UL-NpGyo--8yPLQt-2" value="a, b, c, min" style="shape=parallelogram;perimeter=parallelogramPerimeter;whiteSpace=wrap;html=1;fixedSize=1;" parent="1" vertex="1">
          <mxGeometry x="320" y="230" width="120" height="60" as="geometry" />
        </mxCell>
        <mxCell id="0xR9UL-NpGyo--8yPLQt-9" style="edgeStyle=orthogonalEdgeStyle;rounded=0;orthogonalLoop=1;jettySize=auto;html=1;" parent="1" source="0xR9UL-NpGyo--8yPLQt-5" target="0xR9UL-NpGyo--8yPLQt-6" edge="1">
          <mxGeometry relative="1" as="geometry" />
        </mxCell>
        <mxCell id="0xR9UL-NpGyo--8yPLQt-5" value="min = a" style="rounded=0;whiteSpace=wrap;html=1;" parent="1" vertex="1">
          <mxGeometry x="320" y="330" width="120" height="60" as="geometry" />
        </mxCell>
        <mxCell id="0xR9UL-NpGyo--8yPLQt-10" style="edgeStyle=orthogonalEdgeStyle;rounded=0;orthogonalLoop=1;jettySize=auto;html=1;entryX=0.5;entryY=0;entryDx=0;entryDy=0;" parent="1" source="0xR9UL-NpGyo--8yPLQt-6" target="0xR9UL-NpGyo--8yPLQt-7" edge="1">
          <mxGeometry relative="1" as="geometry" />
        </mxCell>
        <mxCell id="0xR9UL-NpGyo--8yPLQt-16" value="false" style="edgeLabel;html=1;align=center;verticalAlign=middle;resizable=0;points=[];" parent="0xR9UL-NpGyo--8yPLQt-10" vertex="1" connectable="0">
          <mxGeometry x="-0.24" y="1" relative="1" as="geometry">
            <mxPoint as="offset" />
          </mxGeometry>
        </mxCell>
        <mxCell id="0xR9UL-NpGyo--8yPLQt-13" style="edgeStyle=orthogonalEdgeStyle;rounded=0;orthogonalLoop=1;jettySize=auto;html=1;entryX=0;entryY=0.5;entryDx=0;entryDy=0;" parent="1" source="0xR9UL-NpGyo--8yPLQt-6" target="0xR9UL-NpGyo--8yPLQt-11" edge="1">
          <mxGeometry relative="1" as="geometry" />
        </mxCell>
        <mxCell id="0xR9UL-NpGyo--8yPLQt-15" value="true" style="edgeLabel;html=1;align=center;verticalAlign=middle;resizable=0;points=[];" parent="0xR9UL-NpGyo--8yPLQt-13" vertex="1" connectable="0">
          <mxGeometry x="-0.0914" y="1" relative="1" as="geometry">
            <mxPoint as="offset" />
          </mxGeometry>
        </mxCell>
        <mxCell id="0xR9UL-NpGyo--8yPLQt-6" value="min&amp;gt;b" style="rhombus;whiteSpace=wrap;html=1;" parent="1" vertex="1">
          <mxGeometry x="340" y="430" width="80" height="80" as="geometry" />
        </mxCell>
        <mxCell id="0xR9UL-NpGyo--8yPLQt-14" style="edgeStyle=orthogonalEdgeStyle;rounded=0;orthogonalLoop=1;jettySize=auto;html=1;entryX=0;entryY=0.5;entryDx=0;entryDy=0;" parent="1" source="0xR9UL-NpGyo--8yPLQt-7" target="0xR9UL-NpGyo--8yPLQt-12" edge="1">
          <mxGeometry relative="1" as="geometry" />
        </mxCell>
        <mxCell id="0xR9UL-NpGyo--8yPLQt-17" value="true" style="edgeLabel;html=1;align=center;verticalAlign=middle;resizable=0;points=[];" parent="0xR9UL-NpGyo--8yPLQt-14" vertex="1" connectable="0">
          <mxGeometry x="-0.12" y="-2" relative="1" as="geometry">
            <mxPoint as="offset" />
          </mxGeometry>
        </mxCell>
        <mxCell id="0xR9UL-NpGyo--8yPLQt-19" style="edgeStyle=orthogonalEdgeStyle;rounded=0;orthogonalLoop=1;jettySize=auto;html=1;entryX=0.443;entryY=1.013;entryDx=0;entryDy=0;entryPerimeter=0;" parent="1" source="0xR9UL-NpGyo--8yPLQt-7" target="0xR9UL-NpGyo--8yPLQt-18" edge="1">
          <mxGeometry relative="1" as="geometry">
            <mxPoint x="380" y="680" as="targetPoint" />
            <Array as="points">
              <mxPoint x="380" y="680" />
              <mxPoint x="753" y="680" />
            </Array>
          </mxGeometry>
        </mxCell>
        <mxCell id="0xR9UL-NpGyo--8yPLQt-24" value="false" style="edgeLabel;html=1;align=center;verticalAlign=middle;resizable=0;points=[];" parent="0xR9UL-NpGyo--8yPLQt-19" vertex="1" connectable="0">
          <mxGeometry x="-0.9247" y="-1" relative="1" as="geometry">
            <mxPoint as="offset" />
          </mxGeometry>
        </mxCell>
        <mxCell id="0xR9UL-NpGyo--8yPLQt-7" value="min&amp;gt;c" style="rhombus;whiteSpace=wrap;html=1;" parent="1" vertex="1">
          <mxGeometry x="340" y="560" width="80" height="80" as="geometry" />
        </mxCell>
        <mxCell id="0xR9UL-NpGyo--8yPLQt-21" style="edgeStyle=orthogonalEdgeStyle;rounded=0;orthogonalLoop=1;jettySize=auto;html=1;entryX=0.5;entryY=0;entryDx=0;entryDy=0;" parent="1" source="0xR9UL-NpGyo--8yPLQt-11" target="0xR9UL-NpGyo--8yPLQt-18" edge="1">
          <mxGeometry relative="1" as="geometry">
            <mxPoint x="760" y="470" as="targetPoint" />
          </mxGeometry>
        </mxCell>
        <mxCell id="0xR9UL-NpGyo--8yPLQt-11" value="min=b" style="rounded=0;whiteSpace=wrap;html=1;" parent="1" vertex="1">
          <mxGeometry x="490" y="440" width="120" height="60" as="geometry" />
        </mxCell>
        <mxCell id="0xR9UL-NpGyo--8yPLQt-20" style="edgeStyle=orthogonalEdgeStyle;rounded=0;orthogonalLoop=1;jettySize=auto;html=1;entryX=0;entryY=0.5;entryDx=0;entryDy=0;" parent="1" source="0xR9UL-NpGyo--8yPLQt-12" target="0xR9UL-NpGyo--8yPLQt-18" edge="1">
          <mxGeometry relative="1" as="geometry" />
        </mxCell>
        <mxCell id="0xR9UL-NpGyo--8yPLQt-12" value="min=c" style="rounded=0;whiteSpace=wrap;html=1;" parent="1" vertex="1">
          <mxGeometry x="490" y="570" width="120" height="60" as="geometry" />
        </mxCell>
        <mxCell id="0xR9UL-NpGyo--8yPLQt-23" style="edgeStyle=orthogonalEdgeStyle;rounded=0;orthogonalLoop=1;jettySize=auto;html=1;entryX=0;entryY=0.5;entryDx=0;entryDy=0;" parent="1" source="0xR9UL-NpGyo--8yPLQt-18" target="0xR9UL-NpGyo--8yPLQt-22" edge="1">
          <mxGeometry relative="1" as="geometry" />
        </mxCell>
        <mxCell id="0xR9UL-NpGyo--8yPLQt-18" value="min" style="shape=parallelogram;perimeter=parallelogramPerimeter;whiteSpace=wrap;html=1;fixedSize=1;" parent="1" vertex="1">
          <mxGeometry x="700" y="570" width="120" height="60" as="geometry" />
        </mxCell>
        <mxCell id="0xR9UL-NpGyo--8yPLQt-22" value="end" style="ellipse;whiteSpace=wrap;html=1;" parent="1" vertex="1">
          <mxGeometry x="860" y="560" width="120" height="80" as="geometry" />
        </mxCell>
      </root>
    </mxGraphModel>
  </diagram>
  <diagram id="qTZQP0urkM84sVhW5mkY" name="bài 2">
    <mxGraphModel dx="1411" dy="973" grid="1" gridSize="10" guides="1" tooltips="1" connect="1" arrows="1" fold="1" page="1" pageScale="1" pageWidth="827" pageHeight="1169" math="0" shadow="0">
      <root>
        <mxCell id="0" />
        <mxCell id="1" parent="0" />
        <mxCell id="Hri1wPyH0qw3CNIpEsyz-7" style="edgeStyle=orthogonalEdgeStyle;rounded=0;orthogonalLoop=1;jettySize=auto;html=1;entryX=0.5;entryY=0;entryDx=0;entryDy=0;" parent="1" source="Hri1wPyH0qw3CNIpEsyz-1" target="Hri1wPyH0qw3CNIpEsyz-2" edge="1">
          <mxGeometry relative="1" as="geometry" />
        </mxCell>
        <mxCell id="Hri1wPyH0qw3CNIpEsyz-1" value="start" style="ellipse;whiteSpace=wrap;html=1;" parent="1" vertex="1">
          <mxGeometry x="320" y="120" width="120" height="80" as="geometry" />
        </mxCell>
        <mxCell id="Hri1wPyH0qw3CNIpEsyz-6" style="edgeStyle=orthogonalEdgeStyle;rounded=0;orthogonalLoop=1;jettySize=auto;html=1;" parent="1" source="Hri1wPyH0qw3CNIpEsyz-2" target="Hri1wPyH0qw3CNIpEsyz-3" edge="1">
          <mxGeometry relative="1" as="geometry" />
        </mxCell>
        <mxCell id="Hri1wPyH0qw3CNIpEsyz-10" value="Text" style="edgeLabel;html=1;align=center;verticalAlign=middle;resizable=0;points=[];" parent="Hri1wPyH0qw3CNIpEsyz-6" vertex="1" connectable="0">
          <mxGeometry x="0.112" y="2" relative="1" as="geometry">
            <mxPoint as="offset" />
          </mxGeometry>
        </mxCell>
        <mxCell id="Hri1wPyH0qw3CNIpEsyz-2" value="a, b, result" style="shape=parallelogram;perimeter=parallelogramPerimeter;whiteSpace=wrap;html=1;fixedSize=1;" parent="1" vertex="1">
          <mxGeometry x="320" y="230" width="120" height="60" as="geometry" />
        </mxCell>
        <mxCell id="Hri1wPyH0qw3CNIpEsyz-8" style="edgeStyle=orthogonalEdgeStyle;rounded=0;orthogonalLoop=1;jettySize=auto;html=1;entryX=0;entryY=0.5;entryDx=0;entryDy=0;" parent="1" source="Hri1wPyH0qw3CNIpEsyz-3" target="Hri1wPyH0qw3CNIpEsyz-4" edge="1">
          <mxGeometry relative="1" as="geometry" />
        </mxCell>
        <mxCell id="Hri1wPyH0qw3CNIpEsyz-12" value="true" style="edgeLabel;html=1;align=center;verticalAlign=middle;resizable=0;points=[];" parent="Hri1wPyH0qw3CNIpEsyz-8" vertex="1" connectable="0">
          <mxGeometry x="-0.088" y="1" relative="1" as="geometry">
            <mxPoint as="offset" />
          </mxGeometry>
        </mxCell>
        <mxCell id="Hri1wPyH0qw3CNIpEsyz-20" style="edgeStyle=orthogonalEdgeStyle;rounded=0;orthogonalLoop=1;jettySize=auto;html=1;" parent="1" source="Hri1wPyH0qw3CNIpEsyz-3" target="Hri1wPyH0qw3CNIpEsyz-21" edge="1">
          <mxGeometry relative="1" as="geometry">
            <mxPoint x="380" y="590" as="targetPoint" />
          </mxGeometry>
        </mxCell>
        <mxCell id="Hri1wPyH0qw3CNIpEsyz-24" value="false" style="edgeLabel;html=1;align=center;verticalAlign=middle;resizable=0;points=[];" parent="Hri1wPyH0qw3CNIpEsyz-20" vertex="1" connectable="0">
          <mxGeometry x="-0.0693" y="2" relative="1" as="geometry">
            <mxPoint as="offset" />
          </mxGeometry>
        </mxCell>
        <mxCell id="Hri1wPyH0qw3CNIpEsyz-3" value="a==0" style="rhombus;whiteSpace=wrap;html=1;" parent="1" vertex="1">
          <mxGeometry x="340" y="340" width="80" height="80" as="geometry" />
        </mxCell>
        <mxCell id="Hri1wPyH0qw3CNIpEsyz-13" style="edgeStyle=orthogonalEdgeStyle;rounded=0;orthogonalLoop=1;jettySize=auto;html=1;entryX=0.5;entryY=0;entryDx=0;entryDy=0;" parent="1" source="Hri1wPyH0qw3CNIpEsyz-4" target="Hri1wPyH0qw3CNIpEsyz-5" edge="1">
          <mxGeometry relative="1" as="geometry" />
        </mxCell>
        <mxCell id="Hri1wPyH0qw3CNIpEsyz-14" value="false" style="edgeLabel;html=1;align=center;verticalAlign=middle;resizable=0;points=[];" parent="Hri1wPyH0qw3CNIpEsyz-13" vertex="1" connectable="0">
          <mxGeometry x="-0.24" y="3" relative="1" as="geometry">
            <mxPoint as="offset" />
          </mxGeometry>
        </mxCell>
        <mxCell id="Hri1wPyH0qw3CNIpEsyz-16" style="edgeStyle=orthogonalEdgeStyle;rounded=0;orthogonalLoop=1;jettySize=auto;html=1;entryX=0;entryY=0.5;entryDx=0;entryDy=0;" parent="1" source="Hri1wPyH0qw3CNIpEsyz-4" target="Hri1wPyH0qw3CNIpEsyz-15" edge="1">
          <mxGeometry relative="1" as="geometry" />
        </mxCell>
        <mxCell id="Hri1wPyH0qw3CNIpEsyz-17" value="true" style="edgeLabel;html=1;align=center;verticalAlign=middle;resizable=0;points=[];" parent="Hri1wPyH0qw3CNIpEsyz-16" vertex="1" connectable="0">
          <mxGeometry x="-0.12" relative="1" as="geometry">
            <mxPoint as="offset" />
          </mxGeometry>
        </mxCell>
        <mxCell id="Hri1wPyH0qw3CNIpEsyz-4" value="b==0" style="rhombus;whiteSpace=wrap;html=1;" parent="1" vertex="1">
          <mxGeometry x="470" y="340" width="80" height="80" as="geometry" />
        </mxCell>
        <mxCell id="Hri1wPyH0qw3CNIpEsyz-19" style="edgeStyle=orthogonalEdgeStyle;rounded=0;orthogonalLoop=1;jettySize=auto;html=1;entryX=0;entryY=0.5;entryDx=0;entryDy=0;" parent="1" source="Hri1wPyH0qw3CNIpEsyz-5" target="Hri1wPyH0qw3CNIpEsyz-18" edge="1">
          <mxGeometry relative="1" as="geometry" />
        </mxCell>
        <mxCell id="Hri1wPyH0qw3CNIpEsyz-5" value="b != 0" style="rhombus;whiteSpace=wrap;html=1;" parent="1" vertex="1">
          <mxGeometry x="470" y="480" width="80" height="80" as="geometry" />
        </mxCell>
        <mxCell id="Hri1wPyH0qw3CNIpEsyz-27" style="edgeStyle=orthogonalEdgeStyle;rounded=0;orthogonalLoop=1;jettySize=auto;html=1;entryX=0.5;entryY=0;entryDx=0;entryDy=0;" parent="1" source="Hri1wPyH0qw3CNIpEsyz-15" target="Hri1wPyH0qw3CNIpEsyz-26" edge="1">
          <mxGeometry relative="1" as="geometry">
            <mxPoint x="860" y="380" as="targetPoint" />
          </mxGeometry>
        </mxCell>
        <mxCell id="Hri1wPyH0qw3CNIpEsyz-15" value="vô số nghiệm" style="shape=parallelogram;perimeter=parallelogramPerimeter;whiteSpace=wrap;html=1;fixedSize=1;" parent="1" vertex="1">
          <mxGeometry x="610" y="350" width="120" height="60" as="geometry" />
        </mxCell>
        <mxCell id="Hri1wPyH0qw3CNIpEsyz-28" style="edgeStyle=orthogonalEdgeStyle;rounded=0;orthogonalLoop=1;jettySize=auto;html=1;entryX=0;entryY=0.5;entryDx=0;entryDy=0;" parent="1" source="Hri1wPyH0qw3CNIpEsyz-18" target="Hri1wPyH0qw3CNIpEsyz-26" edge="1">
          <mxGeometry relative="1" as="geometry" />
        </mxCell>
        <mxCell id="Hri1wPyH0qw3CNIpEsyz-18" value="vô nghiệm" style="shape=parallelogram;perimeter=parallelogramPerimeter;whiteSpace=wrap;html=1;fixedSize=1;" parent="1" vertex="1">
          <mxGeometry x="610" y="490" width="120" height="60" as="geometry" />
        </mxCell>
        <mxCell id="Hri1wPyH0qw3CNIpEsyz-23" style="edgeStyle=orthogonalEdgeStyle;rounded=0;orthogonalLoop=1;jettySize=auto;html=1;" parent="1" source="Hri1wPyH0qw3CNIpEsyz-21" target="Hri1wPyH0qw3CNIpEsyz-22" edge="1">
          <mxGeometry relative="1" as="geometry" />
        </mxCell>
        <mxCell id="Hri1wPyH0qw3CNIpEsyz-25" value="true" style="edgeLabel;html=1;align=center;verticalAlign=middle;resizable=0;points=[];" parent="Hri1wPyH0qw3CNIpEsyz-23" vertex="1" connectable="0">
          <mxGeometry x="0.0089" y="1" relative="1" as="geometry">
            <mxPoint as="offset" />
          </mxGeometry>
        </mxCell>
        <mxCell id="HTlNBMXNfu0AbGiRj-aI-2" value="true" style="edgeLabel;html=1;align=center;verticalAlign=middle;resizable=0;points=[];" parent="Hri1wPyH0qw3CNIpEsyz-23" vertex="1" connectable="0">
          <mxGeometry x="-0.7783" y="-1" relative="1" as="geometry">
            <mxPoint as="offset" />
          </mxGeometry>
        </mxCell>
        <mxCell id="Hri1wPyH0qw3CNIpEsyz-31" style="edgeStyle=orthogonalEdgeStyle;rounded=0;orthogonalLoop=1;jettySize=auto;html=1;entryX=0;entryY=0.5;entryDx=0;entryDy=0;" parent="1" source="Hri1wPyH0qw3CNIpEsyz-21" target="Hri1wPyH0qw3CNIpEsyz-30" edge="1">
          <mxGeometry relative="1" as="geometry">
            <mxPoint x="380" y="700" as="targetPoint" />
            <Array as="points">
              <mxPoint x="380" y="700" />
            </Array>
          </mxGeometry>
        </mxCell>
        <mxCell id="Hri1wPyH0qw3CNIpEsyz-33" value="false" style="edgeLabel;html=1;align=center;verticalAlign=middle;resizable=0;points=[];" parent="Hri1wPyH0qw3CNIpEsyz-31" vertex="1" connectable="0">
          <mxGeometry x="-0.8341" y="-2" relative="1" as="geometry">
            <mxPoint as="offset" />
          </mxGeometry>
        </mxCell>
        <mxCell id="Hri1wPyH0qw3CNIpEsyz-21" value="a != 0" style="rhombus;whiteSpace=wrap;html=1;" parent="1" vertex="1">
          <mxGeometry x="340" y="570" width="80" height="80" as="geometry" />
        </mxCell>
        <mxCell id="Hri1wPyH0qw3CNIpEsyz-29" style="edgeStyle=orthogonalEdgeStyle;rounded=0;orthogonalLoop=1;jettySize=auto;html=1;entryX=0.5;entryY=1;entryDx=0;entryDy=0;" parent="1" source="Hri1wPyH0qw3CNIpEsyz-22" target="Hri1wPyH0qw3CNIpEsyz-26" edge="1">
          <mxGeometry relative="1" as="geometry">
            <mxPoint x="860" y="610" as="targetPoint" />
          </mxGeometry>
        </mxCell>
        <mxCell id="Hri1wPyH0qw3CNIpEsyz-22" value="result" style="shape=parallelogram;perimeter=parallelogramPerimeter;whiteSpace=wrap;html=1;fixedSize=1;" parent="1" vertex="1">
          <mxGeometry x="650" y="580" width="120" height="60" as="geometry" />
        </mxCell>
        <mxCell id="Hri1wPyH0qw3CNIpEsyz-26" value="end" style="ellipse;whiteSpace=wrap;html=1;" parent="1" vertex="1">
          <mxGeometry x="800" y="480" width="120" height="80" as="geometry" />
        </mxCell>
        <mxCell id="Hri1wPyH0qw3CNIpEsyz-32" style="edgeStyle=orthogonalEdgeStyle;rounded=0;orthogonalLoop=1;jettySize=auto;html=1;" parent="1" source="Hri1wPyH0qw3CNIpEsyz-30" edge="1">
          <mxGeometry relative="1" as="geometry">
            <mxPoint x="860" y="610" as="targetPoint" />
          </mxGeometry>
        </mxCell>
        <mxCell id="Hri1wPyH0qw3CNIpEsyz-30" value="vui lòng nhập đúng số" style="shape=parallelogram;perimeter=parallelogramPerimeter;whiteSpace=wrap;html=1;fixedSize=1;" parent="1" vertex="1">
          <mxGeometry x="590" y="670" width="160" height="60" as="geometry" />
        </mxCell>
        <mxCell id="HTlNBMXNfu0AbGiRj-aI-1" value="result = -b/a" style="rounded=0;whiteSpace=wrap;html=1;" parent="1" vertex="1">
          <mxGeometry x="480" y="580" width="120" height="60" as="geometry" />
        </mxCell>
      </root>
    </mxGraphModel>
  </diagram>
  <diagram id="f2PV_F4YTJoeuVJC2O53" name="bài 3">
    <mxGraphModel dx="1050" dy="617" grid="1" gridSize="10" guides="1" tooltips="1" connect="1" arrows="1" fold="1" page="1" pageScale="1" pageWidth="827" pageHeight="1169" math="0" shadow="0">
      <root>
        <mxCell id="0" />
        <mxCell id="1" parent="0" />
        <mxCell id="Nr0QtRGF7N4IxbBrWwQY-3" style="edgeStyle=orthogonalEdgeStyle;rounded=0;orthogonalLoop=1;jettySize=auto;html=1;entryX=0.5;entryY=0;entryDx=0;entryDy=0;" parent="1" source="Nr0QtRGF7N4IxbBrWwQY-1" target="Nr0QtRGF7N4IxbBrWwQY-2" edge="1">
          <mxGeometry relative="1" as="geometry" />
        </mxCell>
        <mxCell id="Nr0QtRGF7N4IxbBrWwQY-1" value="start" style="ellipse;whiteSpace=wrap;html=1;" parent="1" vertex="1">
          <mxGeometry x="310" y="120" width="120" height="80" as="geometry" />
        </mxCell>
        <mxCell id="Nr0QtRGF7N4IxbBrWwQY-7" style="edgeStyle=orthogonalEdgeStyle;rounded=0;orthogonalLoop=1;jettySize=auto;html=1;entryX=0.5;entryY=0;entryDx=0;entryDy=0;" parent="1" source="Nr0QtRGF7N4IxbBrWwQY-2" target="Nr0QtRGF7N4IxbBrWwQY-6" edge="1">
          <mxGeometry relative="1" as="geometry" />
        </mxCell>
        <mxCell id="Nr0QtRGF7N4IxbBrWwQY-2" value="a, b, gcd, lcm" style="shape=parallelogram;perimeter=parallelogramPerimeter;whiteSpace=wrap;html=1;fixedSize=1;" parent="1" vertex="1">
          <mxGeometry x="310" y="230" width="120" height="60" as="geometry" />
        </mxCell>
        <mxCell id="Nr0QtRGF7N4IxbBrWwQY-8" style="edgeStyle=orthogonalEdgeStyle;rounded=0;orthogonalLoop=1;jettySize=auto;html=1;" parent="1" source="Nr0QtRGF7N4IxbBrWwQY-6" edge="1">
          <mxGeometry relative="1" as="geometry">
            <mxPoint x="480" y="360" as="targetPoint" />
          </mxGeometry>
        </mxCell>
        <mxCell id="Nr0QtRGF7N4IxbBrWwQY-17" value="true" style="edgeLabel;html=1;align=center;verticalAlign=middle;resizable=0;points=[];" parent="Nr0QtRGF7N4IxbBrWwQY-8" vertex="1" connectable="0">
          <mxGeometry x="-0.0922" y="1" relative="1" as="geometry">
            <mxPoint as="offset" />
          </mxGeometry>
        </mxCell>
        <mxCell id="Nr0QtRGF7N4IxbBrWwQY-9" style="edgeStyle=orthogonalEdgeStyle;rounded=0;orthogonalLoop=1;jettySize=auto;html=1;" parent="1" source="Nr0QtRGF7N4IxbBrWwQY-6" edge="1">
          <mxGeometry relative="1" as="geometry">
            <mxPoint x="370" y="460" as="targetPoint" />
          </mxGeometry>
        </mxCell>
        <mxCell id="Nr0QtRGF7N4IxbBrWwQY-18" value="false" style="edgeLabel;html=1;align=center;verticalAlign=middle;resizable=0;points=[];" parent="Nr0QtRGF7N4IxbBrWwQY-9" vertex="1" connectable="0">
          <mxGeometry x="-0.1273" relative="1" as="geometry">
            <mxPoint as="offset" />
          </mxGeometry>
        </mxCell>
        <mxCell id="Nr0QtRGF7N4IxbBrWwQY-6" value="a==0||b==0" style="rhombus;whiteSpace=wrap;html=1;" parent="1" vertex="1">
          <mxGeometry x="330" y="320" width="80" height="80" as="geometry" />
        </mxCell>
        <mxCell id="Nr0QtRGF7N4IxbBrWwQY-14" style="edgeStyle=orthogonalEdgeStyle;rounded=0;orthogonalLoop=1;jettySize=auto;html=1;entryX=0;entryY=0.5;entryDx=0;entryDy=0;" parent="1" source="Nr0QtRGF7N4IxbBrWwQY-12" target="Nr0QtRGF7N4IxbBrWwQY-19" edge="1">
          <mxGeometry relative="1" as="geometry">
            <mxPoint x="640" y="360" as="targetPoint" />
          </mxGeometry>
        </mxCell>
        <mxCell id="Nr0QtRGF7N4IxbBrWwQY-12" value="lcm=a+b" style="rounded=0;whiteSpace=wrap;html=1;" parent="1" vertex="1">
          <mxGeometry x="480" y="330" width="120" height="60" as="geometry" />
        </mxCell>
        <mxCell id="Nr0QtRGF7N4IxbBrWwQY-15" value="end" style="ellipse;whiteSpace=wrap;html=1;" parent="1" vertex="1">
          <mxGeometry x="890" y="320" width="120" height="80" as="geometry" />
        </mxCell>
        <mxCell id="Nr0QtRGF7N4IxbBrWwQY-24" style="edgeStyle=orthogonalEdgeStyle;rounded=0;orthogonalLoop=1;jettySize=auto;html=1;entryX=0.5;entryY=0;entryDx=0;entryDy=0;" parent="1" source="Nr0QtRGF7N4IxbBrWwQY-16" target="Nr0QtRGF7N4IxbBrWwQY-22" edge="1">
          <mxGeometry relative="1" as="geometry" />
        </mxCell>
        <mxCell id="Nr0QtRGF7N4IxbBrWwQY-26" value="false" style="edgeLabel;html=1;align=center;verticalAlign=middle;resizable=0;points=[];" parent="Nr0QtRGF7N4IxbBrWwQY-24" vertex="1" connectable="0">
          <mxGeometry x="-0.36" y="1" relative="1" as="geometry">
            <mxPoint as="offset" />
          </mxGeometry>
        </mxCell>
        <mxCell id="Nr0QtRGF7N4IxbBrWwQY-32" style="edgeStyle=orthogonalEdgeStyle;rounded=0;orthogonalLoop=1;jettySize=auto;html=1;entryX=1;entryY=0.5;entryDx=0;entryDy=0;" parent="1" source="Nr0QtRGF7N4IxbBrWwQY-16" target="Nr0QtRGF7N4IxbBrWwQY-21" edge="1">
          <mxGeometry relative="1" as="geometry" />
        </mxCell>
        <mxCell id="Nr0QtRGF7N4IxbBrWwQY-33" value="true" style="edgeLabel;html=1;align=center;verticalAlign=middle;resizable=0;points=[];" parent="Nr0QtRGF7N4IxbBrWwQY-32" vertex="1" connectable="0">
          <mxGeometry x="-0.264" y="1" relative="1" as="geometry">
            <mxPoint as="offset" />
          </mxGeometry>
        </mxCell>
        <mxCell id="Nr0QtRGF7N4IxbBrWwQY-16" value="a&amp;gt;b" style="rhombus;whiteSpace=wrap;html=1;" parent="1" vertex="1">
          <mxGeometry x="330" y="585" width="80" height="80" as="geometry" />
        </mxCell>
        <mxCell id="Nr0QtRGF7N4IxbBrWwQY-20" style="edgeStyle=orthogonalEdgeStyle;rounded=0;orthogonalLoop=1;jettySize=auto;html=1;entryX=0;entryY=0.5;entryDx=0;entryDy=0;" parent="1" source="Nr0QtRGF7N4IxbBrWwQY-19" target="Nr0QtRGF7N4IxbBrWwQY-15" edge="1">
          <mxGeometry relative="1" as="geometry" />
        </mxCell>
        <mxCell id="Nr0QtRGF7N4IxbBrWwQY-19" value="lcm" style="shape=parallelogram;perimeter=parallelogramPerimeter;whiteSpace=wrap;html=1;fixedSize=1;" parent="1" vertex="1">
          <mxGeometry x="670" y="330" width="120" height="60" as="geometry" />
        </mxCell>
        <mxCell id="Nr0QtRGF7N4IxbBrWwQY-36" style="edgeStyle=orthogonalEdgeStyle;rounded=0;orthogonalLoop=1;jettySize=auto;html=1;" parent="1" source="Nr0QtRGF7N4IxbBrWwQY-21" edge="1">
          <mxGeometry relative="1" as="geometry">
            <mxPoint x="220" y="500" as="targetPoint" />
          </mxGeometry>
        </mxCell>
        <mxCell id="Nr0QtRGF7N4IxbBrWwQY-21" value="a=a-b" style="rounded=0;whiteSpace=wrap;html=1;" parent="1" vertex="1">
          <mxGeometry x="160" y="595" width="120" height="60" as="geometry" />
        </mxCell>
        <mxCell id="Nr0QtRGF7N4IxbBrWwQY-35" style="edgeStyle=orthogonalEdgeStyle;rounded=0;orthogonalLoop=1;jettySize=auto;html=1;entryX=0;entryY=0.5;entryDx=0;entryDy=0;" parent="1" source="Nr0QtRGF7N4IxbBrWwQY-22" target="Nr0QtRGF7N4IxbBrWwQY-27" edge="1">
          <mxGeometry relative="1" as="geometry">
            <mxPoint x="110" y="760" as="targetPoint" />
            <Array as="points">
              <mxPoint x="130" y="760" />
              <mxPoint x="130" y="500" />
            </Array>
          </mxGeometry>
        </mxCell>
        <mxCell id="Nr0QtRGF7N4IxbBrWwQY-22" value="b=b-a" style="rounded=0;whiteSpace=wrap;html=1;" parent="1" vertex="1">
          <mxGeometry x="310" y="730" width="120" height="60" as="geometry" />
        </mxCell>
        <mxCell id="Nr0QtRGF7N4IxbBrWwQY-29" style="edgeStyle=orthogonalEdgeStyle;rounded=0;orthogonalLoop=1;jettySize=auto;html=1;entryX=0.5;entryY=0;entryDx=0;entryDy=0;" parent="1" source="Nr0QtRGF7N4IxbBrWwQY-27" target="Nr0QtRGF7N4IxbBrWwQY-16" edge="1">
          <mxGeometry relative="1" as="geometry" />
        </mxCell>
        <mxCell id="Nr0QtRGF7N4IxbBrWwQY-30" value="false" style="edgeLabel;html=1;align=center;verticalAlign=middle;resizable=0;points=[];" parent="Nr0QtRGF7N4IxbBrWwQY-29" vertex="1" connectable="0">
          <mxGeometry x="-0.0844" y="1" relative="1" as="geometry">
            <mxPoint as="offset" />
          </mxGeometry>
        </mxCell>
        <mxCell id="Nr0QtRGF7N4IxbBrWwQY-38" style="edgeStyle=orthogonalEdgeStyle;rounded=0;orthogonalLoop=1;jettySize=auto;html=1;entryX=0;entryY=0.5;entryDx=0;entryDy=0;" parent="1" source="Nr0QtRGF7N4IxbBrWwQY-27" target="Nr0QtRGF7N4IxbBrWwQY-37" edge="1">
          <mxGeometry relative="1" as="geometry" />
        </mxCell>
        <mxCell id="Nr0QtRGF7N4IxbBrWwQY-27" value="a==b" style="rhombus;whiteSpace=wrap;html=1;" parent="1" vertex="1">
          <mxGeometry x="330" y="460" width="80" height="80" as="geometry" />
        </mxCell>
        <mxCell id="Nr0QtRGF7N4IxbBrWwQY-41" style="edgeStyle=orthogonalEdgeStyle;rounded=0;orthogonalLoop=1;jettySize=auto;html=1;entryX=0;entryY=0.5;entryDx=0;entryDy=0;" parent="1" source="Nr0QtRGF7N4IxbBrWwQY-37" target="Nr0QtRGF7N4IxbBrWwQY-40" edge="1">
          <mxGeometry relative="1" as="geometry" />
        </mxCell>
        <mxCell id="Nr0QtRGF7N4IxbBrWwQY-37" value="gcd=a" style="rounded=0;whiteSpace=wrap;html=1;" parent="1" vertex="1">
          <mxGeometry x="480" y="470" width="120" height="60" as="geometry" />
        </mxCell>
        <mxCell id="Nr0QtRGF7N4IxbBrWwQY-42" style="edgeStyle=orthogonalEdgeStyle;rounded=0;orthogonalLoop=1;jettySize=auto;html=1;entryX=0.5;entryY=1;entryDx=0;entryDy=0;" parent="1" source="Nr0QtRGF7N4IxbBrWwQY-40" target="Nr0QtRGF7N4IxbBrWwQY-19" edge="1">
          <mxGeometry relative="1" as="geometry" />
        </mxCell>
        <mxCell id="Nr0QtRGF7N4IxbBrWwQY-40" value="lcm= (a*b)/gcd" style="rounded=0;whiteSpace=wrap;html=1;" parent="1" vertex="1">
          <mxGeometry x="670" y="470" width="120" height="60" as="geometry" />
        </mxCell>
      </root>
    </mxGraphModel>
  </diagram>
  <diagram id="lGMTeAGaJGwDpIHaaldz" name="bài 4">
    <mxGraphModel dx="1050" dy="617" grid="1" gridSize="10" guides="1" tooltips="1" connect="1" arrows="1" fold="1" page="1" pageScale="1" pageWidth="827" pageHeight="1169" math="0" shadow="0">
      <root>
        <mxCell id="0" />
        <mxCell id="1" parent="0" />
        <mxCell id="TdUB4Uot47QcS_LTFYB6-1" style="edgeStyle=orthogonalEdgeStyle;rounded=0;orthogonalLoop=1;jettySize=auto;html=1;entryX=0.5;entryY=0;entryDx=0;entryDy=0;" parent="1" source="-1Q8VQ3NrjJ8RNAwx5Em-1" target="-1Q8VQ3NrjJ8RNAwx5Em-3" edge="1">
          <mxGeometry relative="1" as="geometry" />
        </mxCell>
        <mxCell id="-1Q8VQ3NrjJ8RNAwx5Em-1" value="start" style="ellipse;whiteSpace=wrap;html=1;" parent="1" vertex="1">
          <mxGeometry x="310" y="60" width="120" height="80" as="geometry" />
        </mxCell>
        <mxCell id="bEfLKduEJO3YvXAkYP20-8" style="edgeStyle=orthogonalEdgeStyle;rounded=0;orthogonalLoop=1;jettySize=auto;html=1;entryX=0.5;entryY=0;entryDx=0;entryDy=0;" parent="1" source="-1Q8VQ3NrjJ8RNAwx5Em-3" target="bEfLKduEJO3YvXAkYP20-2" edge="1">
          <mxGeometry relative="1" as="geometry" />
        </mxCell>
        <mxCell id="-1Q8VQ3NrjJ8RNAwx5Em-3" value="a, b, c, delta" style="shape=parallelogram;perimeter=parallelogramPerimeter;whiteSpace=wrap;html=1;fixedSize=1;" parent="1" vertex="1">
          <mxGeometry x="305" y="190" width="130" height="60" as="geometry" />
        </mxCell>
        <mxCell id="bEfLKduEJO3YvXAkYP20-9" style="edgeStyle=orthogonalEdgeStyle;rounded=0;orthogonalLoop=1;jettySize=auto;html=1;" parent="1" source="bEfLKduEJO3YvXAkYP20-2" target="bEfLKduEJO3YvXAkYP20-4" edge="1">
          <mxGeometry relative="1" as="geometry" />
        </mxCell>
        <mxCell id="bEfLKduEJO3YvXAkYP20-2" value="delta = b^2 -4*a*c" style="rounded=0;whiteSpace=wrap;html=1;" parent="1" vertex="1">
          <mxGeometry x="310" y="300" width="120" height="60" as="geometry" />
        </mxCell>
        <mxCell id="bEfLKduEJO3YvXAkYP20-11" style="edgeStyle=orthogonalEdgeStyle;rounded=0;orthogonalLoop=1;jettySize=auto;html=1;entryX=0.5;entryY=0;entryDx=0;entryDy=0;" parent="1" source="bEfLKduEJO3YvXAkYP20-3" target="bEfLKduEJO3YvXAkYP20-5" edge="1">
          <mxGeometry relative="1" as="geometry" />
        </mxCell>
        <mxCell id="bEfLKduEJO3YvXAkYP20-14" value="false" style="edgeLabel;html=1;align=center;verticalAlign=middle;resizable=0;points=[];" parent="bEfLKduEJO3YvXAkYP20-11" vertex="1" connectable="0">
          <mxGeometry x="-0.1892" relative="1" as="geometry">
            <mxPoint y="1" as="offset" />
          </mxGeometry>
        </mxCell>
        <mxCell id="bEfLKduEJO3YvXAkYP20-28" style="edgeStyle=orthogonalEdgeStyle;rounded=0;orthogonalLoop=1;jettySize=auto;html=1;entryX=0;entryY=0.5;entryDx=0;entryDy=0;" parent="1" source="bEfLKduEJO3YvXAkYP20-3" target="bEfLKduEJO3YvXAkYP20-26" edge="1">
          <mxGeometry relative="1" as="geometry" />
        </mxCell>
        <mxCell id="bEfLKduEJO3YvXAkYP20-29" value="true" style="edgeLabel;html=1;align=center;verticalAlign=middle;resizable=0;points=[];" parent="bEfLKduEJO3YvXAkYP20-28" vertex="1" connectable="0">
          <mxGeometry x="-0.1704" relative="1" as="geometry">
            <mxPoint as="offset" />
          </mxGeometry>
        </mxCell>
        <mxCell id="bEfLKduEJO3YvXAkYP20-44" value="true" style="edgeLabel;html=1;align=center;verticalAlign=middle;resizable=0;points=[];" parent="bEfLKduEJO3YvXAkYP20-28" vertex="1" connectable="0">
          <mxGeometry x="-0.7322" y="1" relative="1" as="geometry">
            <mxPoint as="offset" />
          </mxGeometry>
        </mxCell>
        <mxCell id="bEfLKduEJO3YvXAkYP20-3" value="delta==0" style="rhombus;whiteSpace=wrap;html=1;" parent="1" vertex="1">
          <mxGeometry x="330" y="544.5" width="80" height="80" as="geometry" />
        </mxCell>
        <mxCell id="bEfLKduEJO3YvXAkYP20-10" style="edgeStyle=orthogonalEdgeStyle;rounded=0;orthogonalLoop=1;jettySize=auto;html=1;entryX=0.5;entryY=0;entryDx=0;entryDy=0;" parent="1" source="bEfLKduEJO3YvXAkYP20-4" target="bEfLKduEJO3YvXAkYP20-3" edge="1">
          <mxGeometry relative="1" as="geometry" />
        </mxCell>
        <mxCell id="bEfLKduEJO3YvXAkYP20-13" value="false" style="edgeLabel;html=1;align=center;verticalAlign=middle;resizable=0;points=[];" parent="bEfLKduEJO3YvXAkYP20-10" vertex="1" connectable="0">
          <mxGeometry x="-0.156" relative="1" as="geometry">
            <mxPoint as="offset" />
          </mxGeometry>
        </mxCell>
        <mxCell id="bEfLKduEJO3YvXAkYP20-17" style="edgeStyle=orthogonalEdgeStyle;rounded=0;orthogonalLoop=1;jettySize=auto;html=1;" parent="1" source="bEfLKduEJO3YvXAkYP20-4" target="bEfLKduEJO3YvXAkYP20-16" edge="1">
          <mxGeometry relative="1" as="geometry" />
        </mxCell>
        <mxCell id="bEfLKduEJO3YvXAkYP20-27" value="true" style="edgeLabel;html=1;align=center;verticalAlign=middle;resizable=0;points=[];" parent="bEfLKduEJO3YvXAkYP20-17" vertex="1" connectable="0">
          <mxGeometry x="-0.088" relative="1" as="geometry">
            <mxPoint as="offset" />
          </mxGeometry>
        </mxCell>
        <mxCell id="bEfLKduEJO3YvXAkYP20-4" value="delta&amp;gt;0" style="rhombus;whiteSpace=wrap;html=1;" parent="1" vertex="1">
          <mxGeometry x="330" y="410" width="80" height="80" as="geometry" />
        </mxCell>
        <mxCell id="bEfLKduEJO3YvXAkYP20-36" style="edgeStyle=orthogonalEdgeStyle;rounded=0;orthogonalLoop=1;jettySize=auto;html=1;entryX=0;entryY=0.5;entryDx=0;entryDy=0;" parent="1" source="bEfLKduEJO3YvXAkYP20-5" target="bEfLKduEJO3YvXAkYP20-35" edge="1">
          <mxGeometry relative="1" as="geometry" />
        </mxCell>
        <mxCell id="bEfLKduEJO3YvXAkYP20-43" value="true" style="edgeLabel;html=1;align=center;verticalAlign=middle;resizable=0;points=[];" parent="bEfLKduEJO3YvXAkYP20-36" vertex="1" connectable="0">
          <mxGeometry x="-0.0933" relative="1" as="geometry">
            <mxPoint as="offset" />
          </mxGeometry>
        </mxCell>
        <mxCell id="bEfLKduEJO3YvXAkYP20-41" style="edgeStyle=orthogonalEdgeStyle;rounded=0;orthogonalLoop=1;jettySize=auto;html=1;entryX=0.5;entryY=0;entryDx=0;entryDy=0;" parent="1" source="bEfLKduEJO3YvXAkYP20-5" target="bEfLKduEJO3YvXAkYP20-40" edge="1">
          <mxGeometry relative="1" as="geometry" />
        </mxCell>
        <mxCell id="bEfLKduEJO3YvXAkYP20-42" value="false" style="edgeLabel;html=1;align=center;verticalAlign=middle;resizable=0;points=[];" parent="bEfLKduEJO3YvXAkYP20-41" vertex="1" connectable="0">
          <mxGeometry x="-0.136" y="-1" relative="1" as="geometry">
            <mxPoint as="offset" />
          </mxGeometry>
        </mxCell>
        <mxCell id="bEfLKduEJO3YvXAkYP20-5" value="delta&amp;lt;0" style="rhombus;whiteSpace=wrap;html=1;" parent="1" vertex="1">
          <mxGeometry x="330" y="680" width="80" height="80" as="geometry" />
        </mxCell>
        <mxCell id="bEfLKduEJO3YvXAkYP20-23" style="edgeStyle=orthogonalEdgeStyle;rounded=0;orthogonalLoop=1;jettySize=auto;html=1;entryX=0.5;entryY=0;entryDx=0;entryDy=0;" parent="1" source="bEfLKduEJO3YvXAkYP20-15" target="bEfLKduEJO3YvXAkYP20-22" edge="1">
          <mxGeometry relative="1" as="geometry" />
        </mxCell>
        <mxCell id="bEfLKduEJO3YvXAkYP20-15" value="x1= (-b +&amp;nbsp;√delta)/ 2a" style="rounded=0;whiteSpace=wrap;html=1;" parent="1" vertex="1">
          <mxGeometry x="650" y="370" width="120" height="60" as="geometry" />
        </mxCell>
        <mxCell id="bEfLKduEJO3YvXAkYP20-20" style="edgeStyle=orthogonalEdgeStyle;rounded=0;orthogonalLoop=1;jettySize=auto;html=1;entryX=0;entryY=0.5;entryDx=0;entryDy=0;" parent="1" source="bEfLKduEJO3YvXAkYP20-16" target="bEfLKduEJO3YvXAkYP20-15" edge="1">
          <mxGeometry relative="1" as="geometry">
            <mxPoint x="610" y="450" as="targetPoint" />
          </mxGeometry>
        </mxCell>
        <mxCell id="bEfLKduEJO3YvXAkYP20-21" style="edgeStyle=orthogonalEdgeStyle;rounded=0;orthogonalLoop=1;jettySize=auto;html=1;entryX=0;entryY=0.5;entryDx=0;entryDy=0;" parent="1" source="bEfLKduEJO3YvXAkYP20-16" target="bEfLKduEJO3YvXAkYP20-19" edge="1">
          <mxGeometry relative="1" as="geometry">
            <mxPoint x="610" y="450" as="targetPoint" />
          </mxGeometry>
        </mxCell>
        <mxCell id="bEfLKduEJO3YvXAkYP20-16" value="x1, x2" style="shape=parallelogram;perimeter=parallelogramPerimeter;whiteSpace=wrap;html=1;fixedSize=1;" parent="1" vertex="1">
          <mxGeometry x="470" y="420" width="120" height="60" as="geometry" />
        </mxCell>
        <mxCell id="bEfLKduEJO3YvXAkYP20-24" style="edgeStyle=orthogonalEdgeStyle;rounded=0;orthogonalLoop=1;jettySize=auto;html=1;entryX=0.5;entryY=1;entryDx=0;entryDy=0;" parent="1" source="bEfLKduEJO3YvXAkYP20-19" target="bEfLKduEJO3YvXAkYP20-22" edge="1">
          <mxGeometry relative="1" as="geometry" />
        </mxCell>
        <mxCell id="bEfLKduEJO3YvXAkYP20-19" value="x2= (-b - √delta)/ 2a" style="rounded=0;whiteSpace=wrap;html=1;" parent="1" vertex="1">
          <mxGeometry x="650" y="470" width="120" height="60" as="geometry" />
        </mxCell>
        <mxCell id="bEfLKduEJO3YvXAkYP20-39" style="edgeStyle=orthogonalEdgeStyle;rounded=0;orthogonalLoop=1;jettySize=auto;html=1;entryX=0.5;entryY=0;entryDx=0;entryDy=0;" parent="1" source="bEfLKduEJO3YvXAkYP20-22" target="bEfLKduEJO3YvXAkYP20-25" edge="1">
          <mxGeometry relative="1" as="geometry" />
        </mxCell>
        <mxCell id="bEfLKduEJO3YvXAkYP20-22" value="x1, x2" style="shape=parallelogram;perimeter=parallelogramPerimeter;whiteSpace=wrap;html=1;fixedSize=1;" parent="1" vertex="1">
          <mxGeometry x="827" y="420" width="120" height="60" as="geometry" />
        </mxCell>
        <mxCell id="bEfLKduEJO3YvXAkYP20-25" value="end" style="ellipse;whiteSpace=wrap;html=1;" parent="1" vertex="1">
          <mxGeometry x="1010" y="545" width="120" height="80" as="geometry" />
        </mxCell>
        <mxCell id="bEfLKduEJO3YvXAkYP20-34" style="edgeStyle=orthogonalEdgeStyle;rounded=0;orthogonalLoop=1;jettySize=auto;html=1;entryX=0;entryY=0.5;entryDx=0;entryDy=0;" parent="1" source="bEfLKduEJO3YvXAkYP20-26" target="bEfLKduEJO3YvXAkYP20-33" edge="1">
          <mxGeometry relative="1" as="geometry" />
        </mxCell>
        <mxCell id="bEfLKduEJO3YvXAkYP20-26" value="x1 = x2 = -b/2a" style="rounded=0;whiteSpace=wrap;html=1;" parent="1" vertex="1">
          <mxGeometry x="650" y="555" width="120" height="60" as="geometry" />
        </mxCell>
        <mxCell id="bEfLKduEJO3YvXAkYP20-32" value="x1, x2" style="shape=parallelogram;perimeter=parallelogramPerimeter;whiteSpace=wrap;html=1;fixedSize=1;" parent="1" vertex="1">
          <mxGeometry x="470" y="555" width="120" height="60" as="geometry" />
        </mxCell>
        <mxCell id="bEfLKduEJO3YvXAkYP20-38" style="edgeStyle=orthogonalEdgeStyle;rounded=0;orthogonalLoop=1;jettySize=auto;html=1;entryX=0;entryY=0.5;entryDx=0;entryDy=0;" parent="1" source="bEfLKduEJO3YvXAkYP20-33" target="bEfLKduEJO3YvXAkYP20-25" edge="1">
          <mxGeometry relative="1" as="geometry" />
        </mxCell>
        <mxCell id="bEfLKduEJO3YvXAkYP20-33" value="x1, x2" style="shape=parallelogram;perimeter=parallelogramPerimeter;whiteSpace=wrap;html=1;fixedSize=1;" parent="1" vertex="1">
          <mxGeometry x="827" y="555" width="120" height="60" as="geometry" />
        </mxCell>
        <mxCell id="bEfLKduEJO3YvXAkYP20-37" style="edgeStyle=orthogonalEdgeStyle;rounded=0;orthogonalLoop=1;jettySize=auto;html=1;entryX=0.5;entryY=1;entryDx=0;entryDy=0;" parent="1" source="bEfLKduEJO3YvXAkYP20-35" target="bEfLKduEJO3YvXAkYP20-25" edge="1">
          <mxGeometry relative="1" as="geometry">
            <mxPoint x="1080" y="720" as="targetPoint" />
          </mxGeometry>
        </mxCell>
        <mxCell id="bEfLKduEJO3YvXAkYP20-35" value="phương trình vô nghiệm" style="shape=parallelogram;perimeter=parallelogramPerimeter;whiteSpace=wrap;html=1;fixedSize=1;" parent="1" vertex="1">
          <mxGeometry x="460" y="690" width="120" height="60" as="geometry" />
        </mxCell>
        <mxCell id="bEfLKduEJO3YvXAkYP20-45" style="edgeStyle=orthogonalEdgeStyle;rounded=0;orthogonalLoop=1;jettySize=auto;html=1;entryX=0;entryY=0.5;entryDx=0;entryDy=0;" parent="1" source="bEfLKduEJO3YvXAkYP20-40" target="-1Q8VQ3NrjJ8RNAwx5Em-3" edge="1">
          <mxGeometry relative="1" as="geometry">
            <Array as="points">
              <mxPoint x="270" y="840" />
              <mxPoint x="270" y="220" />
            </Array>
          </mxGeometry>
        </mxCell>
        <mxCell id="bEfLKduEJO3YvXAkYP20-40" value="vui lòng nhập đúng" style="shape=parallelogram;perimeter=parallelogramPerimeter;whiteSpace=wrap;html=1;fixedSize=1;" parent="1" vertex="1">
          <mxGeometry x="300" y="810" width="140" height="60" as="geometry" />
        </mxCell>
      </root>
    </mxGraphModel>
  </diagram>
  <diagram id="4nxpnBBYQk1m9-QK432V" name="bài 5">
    <mxGraphModel dx="817" dy="563" grid="1" gridSize="10" guides="1" tooltips="1" connect="1" arrows="1" fold="1" page="1" pageScale="1" pageWidth="827" pageHeight="1169" math="0" shadow="0">
      <root>
        <mxCell id="0" />
        <mxCell id="1" parent="0" />
        <mxCell id="KjfxeReiQNN9Bch8wzkT-2" style="edgeStyle=orthogonalEdgeStyle;rounded=0;orthogonalLoop=1;jettySize=auto;html=1;entryX=0.5;entryY=0;entryDx=0;entryDy=0;" edge="1" parent="1" source="KjfxeReiQNN9Bch8wzkT-3" target="KjfxeReiQNN9Bch8wzkT-5">
          <mxGeometry relative="1" as="geometry" />
        </mxCell>
        <mxCell id="KjfxeReiQNN9Bch8wzkT-3" value="Start" style="ellipse;whiteSpace=wrap;html=1;" vertex="1" parent="1">
          <mxGeometry x="350" y="30" width="120" height="80" as="geometry" />
        </mxCell>
        <mxCell id="KjfxeReiQNN9Bch8wzkT-4" style="edgeStyle=orthogonalEdgeStyle;rounded=0;orthogonalLoop=1;jettySize=auto;html=1;entryX=0.5;entryY=0;entryDx=0;entryDy=0;" edge="1" parent="1" source="KjfxeReiQNN9Bch8wzkT-5" target="KjfxeReiQNN9Bch8wzkT-10">
          <mxGeometry relative="1" as="geometry" />
        </mxCell>
        <mxCell id="KjfxeReiQNN9Bch8wzkT-5" value="number1, number2, +, -, *, /, result" style="shape=parallelogram;perimeter=parallelogramPerimeter;whiteSpace=wrap;html=1;fixedSize=1;" vertex="1" parent="1">
          <mxGeometry x="298.5" y="150" width="221.5" height="60" as="geometry" />
        </mxCell>
        <mxCell id="KjfxeReiQNN9Bch8wzkT-6" style="edgeStyle=orthogonalEdgeStyle;rounded=0;orthogonalLoop=1;jettySize=auto;html=1;entryX=0.5;entryY=0;entryDx=0;entryDy=0;" edge="1" parent="1" source="KjfxeReiQNN9Bch8wzkT-10" target="KjfxeReiQNN9Bch8wzkT-14">
          <mxGeometry relative="1" as="geometry" />
        </mxCell>
        <mxCell id="KjfxeReiQNN9Bch8wzkT-7" value="false" style="edgeLabel;html=1;align=center;verticalAlign=middle;resizable=0;points=[];" vertex="1" connectable="0" parent="KjfxeReiQNN9Bch8wzkT-6">
          <mxGeometry x="-0.2" y="-2" relative="1" as="geometry">
            <mxPoint as="offset" />
          </mxGeometry>
        </mxCell>
        <mxCell id="KjfxeReiQNN9Bch8wzkT-8" style="edgeStyle=orthogonalEdgeStyle;rounded=0;orthogonalLoop=1;jettySize=auto;html=1;entryX=0;entryY=0.5;entryDx=0;entryDy=0;" edge="1" parent="1" source="KjfxeReiQNN9Bch8wzkT-10" target="KjfxeReiQNN9Bch8wzkT-24">
          <mxGeometry relative="1" as="geometry" />
        </mxCell>
        <mxCell id="KjfxeReiQNN9Bch8wzkT-9" value="true" style="edgeLabel;html=1;align=center;verticalAlign=middle;resizable=0;points=[];" vertex="1" connectable="0" parent="KjfxeReiQNN9Bch8wzkT-8">
          <mxGeometry x="-0.0571" y="1" relative="1" as="geometry">
            <mxPoint as="offset" />
          </mxGeometry>
        </mxCell>
        <mxCell id="KjfxeReiQNN9Bch8wzkT-10" value="+" style="rhombus;whiteSpace=wrap;html=1;" vertex="1" parent="1">
          <mxGeometry x="370" y="240" width="80" height="80" as="geometry" />
        </mxCell>
        <mxCell id="KjfxeReiQNN9Bch8wzkT-11" style="edgeStyle=orthogonalEdgeStyle;rounded=0;orthogonalLoop=1;jettySize=auto;html=1;" edge="1" parent="1" source="KjfxeReiQNN9Bch8wzkT-14" target="KjfxeReiQNN9Bch8wzkT-18">
          <mxGeometry relative="1" as="geometry" />
        </mxCell>
        <mxCell id="KjfxeReiQNN9Bch8wzkT-12" value="false" style="edgeLabel;html=1;align=center;verticalAlign=middle;resizable=0;points=[];" vertex="1" connectable="0" parent="KjfxeReiQNN9Bch8wzkT-11">
          <mxGeometry x="-0.32" relative="1" as="geometry">
            <mxPoint as="offset" />
          </mxGeometry>
        </mxCell>
        <mxCell id="KjfxeReiQNN9Bch8wzkT-13" style="edgeStyle=orthogonalEdgeStyle;rounded=0;orthogonalLoop=1;jettySize=auto;html=1;entryX=0;entryY=0.5;entryDx=0;entryDy=0;" edge="1" parent="1" source="KjfxeReiQNN9Bch8wzkT-14" target="KjfxeReiQNN9Bch8wzkT-27">
          <mxGeometry relative="1" as="geometry" />
        </mxCell>
        <mxCell id="KjfxeReiQNN9Bch8wzkT-14" value="-" style="rhombus;whiteSpace=wrap;html=1;" vertex="1" parent="1">
          <mxGeometry x="370" y="370" width="80" height="80" as="geometry" />
        </mxCell>
        <mxCell id="KjfxeReiQNN9Bch8wzkT-15" style="edgeStyle=orthogonalEdgeStyle;rounded=0;orthogonalLoop=1;jettySize=auto;html=1;" edge="1" parent="1" source="KjfxeReiQNN9Bch8wzkT-18" target="KjfxeReiQNN9Bch8wzkT-22">
          <mxGeometry relative="1" as="geometry" />
        </mxCell>
        <mxCell id="KjfxeReiQNN9Bch8wzkT-16" value="false" style="edgeLabel;html=1;align=center;verticalAlign=middle;resizable=0;points=[];" vertex="1" connectable="0" parent="KjfxeReiQNN9Bch8wzkT-15">
          <mxGeometry x="-0.15" relative="1" as="geometry">
            <mxPoint as="offset" />
          </mxGeometry>
        </mxCell>
        <mxCell id="KjfxeReiQNN9Bch8wzkT-17" style="edgeStyle=orthogonalEdgeStyle;rounded=0;orthogonalLoop=1;jettySize=auto;html=1;entryX=0;entryY=0.5;entryDx=0;entryDy=0;" edge="1" parent="1" source="KjfxeReiQNN9Bch8wzkT-18" target="KjfxeReiQNN9Bch8wzkT-30">
          <mxGeometry relative="1" as="geometry" />
        </mxCell>
        <mxCell id="KjfxeReiQNN9Bch8wzkT-18" value="*" style="rhombus;whiteSpace=wrap;html=1;" vertex="1" parent="1">
          <mxGeometry x="370" y="500" width="80" height="80" as="geometry" />
        </mxCell>
        <mxCell id="KjfxeReiQNN9Bch8wzkT-19" style="edgeStyle=orthogonalEdgeStyle;rounded=0;orthogonalLoop=1;jettySize=auto;html=1;entryX=0;entryY=0.5;entryDx=0;entryDy=0;" edge="1" parent="1" source="KjfxeReiQNN9Bch8wzkT-22" target="KjfxeReiQNN9Bch8wzkT-33">
          <mxGeometry relative="1" as="geometry" />
        </mxCell>
        <mxCell id="KjfxeReiQNN9Bch8wzkT-20" style="edgeStyle=orthogonalEdgeStyle;rounded=0;orthogonalLoop=1;jettySize=auto;html=1;" edge="1" parent="1" source="KjfxeReiQNN9Bch8wzkT-22" target="KjfxeReiQNN9Bch8wzkT-38">
          <mxGeometry relative="1" as="geometry" />
        </mxCell>
        <mxCell id="KjfxeReiQNN9Bch8wzkT-21" value="false" style="edgeLabel;html=1;align=center;verticalAlign=middle;resizable=0;points=[];" vertex="1" connectable="0" parent="KjfxeReiQNN9Bch8wzkT-20">
          <mxGeometry x="-0.0514" y="-1" relative="1" as="geometry">
            <mxPoint as="offset" />
          </mxGeometry>
        </mxCell>
        <mxCell id="KjfxeReiQNN9Bch8wzkT-22" value="/" style="rhombus;whiteSpace=wrap;html=1;" vertex="1" parent="1">
          <mxGeometry x="370" y="620" width="80" height="80" as="geometry" />
        </mxCell>
        <mxCell id="KjfxeReiQNN9Bch8wzkT-23" style="edgeStyle=orthogonalEdgeStyle;rounded=0;orthogonalLoop=1;jettySize=auto;html=1;entryX=0.5;entryY=0;entryDx=0;entryDy=0;" edge="1" parent="1" source="KjfxeReiQNN9Bch8wzkT-24" target="KjfxeReiQNN9Bch8wzkT-35">
          <mxGeometry relative="1" as="geometry">
            <mxPoint x="860" y="280" as="targetPoint" />
          </mxGeometry>
        </mxCell>
        <mxCell id="KjfxeReiQNN9Bch8wzkT-24" value="result = number1 + number2" style="rounded=0;whiteSpace=wrap;html=1;" vertex="1" parent="1">
          <mxGeometry x="520" y="250" width="200" height="60" as="geometry" />
        </mxCell>
        <mxCell id="KjfxeReiQNN9Bch8wzkT-25" value="true" style="edgeLabel;html=1;align=center;verticalAlign=middle;resizable=0;points=[];" vertex="1" connectable="0" parent="1">
          <mxGeometry x="483" y="409" as="geometry" />
        </mxCell>
        <mxCell id="KjfxeReiQNN9Bch8wzkT-26" style="edgeStyle=orthogonalEdgeStyle;rounded=0;orthogonalLoop=1;jettySize=auto;html=1;" edge="1" parent="1" source="KjfxeReiQNN9Bch8wzkT-27" target="KjfxeReiQNN9Bch8wzkT-35">
          <mxGeometry relative="1" as="geometry" />
        </mxCell>
        <mxCell id="KjfxeReiQNN9Bch8wzkT-27" value="result = number1 - number2" style="rounded=0;whiteSpace=wrap;html=1;" vertex="1" parent="1">
          <mxGeometry x="520" y="380" width="200" height="60" as="geometry" />
        </mxCell>
        <mxCell id="KjfxeReiQNN9Bch8wzkT-28" value="true" style="edgeLabel;html=1;align=center;verticalAlign=middle;resizable=0;points=[];" vertex="1" connectable="0" parent="1">
          <mxGeometry x="483" y="539" as="geometry" />
        </mxCell>
        <mxCell id="KjfxeReiQNN9Bch8wzkT-29" style="edgeStyle=orthogonalEdgeStyle;rounded=0;orthogonalLoop=1;jettySize=auto;html=1;" edge="1" parent="1" source="KjfxeReiQNN9Bch8wzkT-30">
          <mxGeometry relative="1" as="geometry">
            <mxPoint x="850" y="540" as="targetPoint" />
          </mxGeometry>
        </mxCell>
        <mxCell id="KjfxeReiQNN9Bch8wzkT-30" value="result = number1 * number2" style="rounded=0;whiteSpace=wrap;html=1;" vertex="1" parent="1">
          <mxGeometry x="520" y="510" width="200" height="60" as="geometry" />
        </mxCell>
        <mxCell id="KjfxeReiQNN9Bch8wzkT-31" value="true" style="edgeLabel;html=1;align=center;verticalAlign=middle;resizable=0;points=[];" vertex="1" connectable="0" parent="1">
          <mxGeometry x="483" y="659" as="geometry" />
        </mxCell>
        <mxCell id="KjfxeReiQNN9Bch8wzkT-32" style="edgeStyle=orthogonalEdgeStyle;rounded=0;orthogonalLoop=1;jettySize=auto;html=1;entryX=0.5;entryY=1;entryDx=0;entryDy=0;" edge="1" parent="1" source="KjfxeReiQNN9Bch8wzkT-33" target="KjfxeReiQNN9Bch8wzkT-35">
          <mxGeometry relative="1" as="geometry" />
        </mxCell>
        <mxCell id="KjfxeReiQNN9Bch8wzkT-33" value="result = number1 / number2" style="rounded=0;whiteSpace=wrap;html=1;" vertex="1" parent="1">
          <mxGeometry x="520" y="630" width="200" height="60" as="geometry" />
        </mxCell>
        <mxCell id="KjfxeReiQNN9Bch8wzkT-34" style="edgeStyle=orthogonalEdgeStyle;rounded=0;orthogonalLoop=1;jettySize=auto;html=1;entryX=0;entryY=0.5;entryDx=0;entryDy=0;" edge="1" parent="1" source="KjfxeReiQNN9Bch8wzkT-35" target="KjfxeReiQNN9Bch8wzkT-36">
          <mxGeometry relative="1" as="geometry" />
        </mxCell>
        <mxCell id="KjfxeReiQNN9Bch8wzkT-35" value="result" style="shape=parallelogram;perimeter=parallelogramPerimeter;whiteSpace=wrap;html=1;fixedSize=1;" vertex="1" parent="1">
          <mxGeometry x="790" y="380" width="120" height="60" as="geometry" />
        </mxCell>
        <mxCell id="KjfxeReiQNN9Bch8wzkT-36" value="End" style="ellipse;whiteSpace=wrap;html=1;" vertex="1" parent="1">
          <mxGeometry x="950" y="370" width="120" height="80" as="geometry" />
        </mxCell>
        <mxCell id="KjfxeReiQNN9Bch8wzkT-37" style="edgeStyle=orthogonalEdgeStyle;rounded=0;orthogonalLoop=1;jettySize=auto;html=1;entryX=0;entryY=0.5;entryDx=0;entryDy=0;" edge="1" parent="1" source="KjfxeReiQNN9Bch8wzkT-38" target="KjfxeReiQNN9Bch8wzkT-5">
          <mxGeometry relative="1" as="geometry">
            <Array as="points">
              <mxPoint x="250" y="180" />
            </Array>
          </mxGeometry>
        </mxCell>
        <mxCell id="KjfxeReiQNN9Bch8wzkT-38" value="vui lòng thử lại" style="shape=parallelogram;perimeter=parallelogramPerimeter;whiteSpace=wrap;html=1;fixedSize=1;" vertex="1" parent="1">
          <mxGeometry x="190" y="630" width="120" height="60" as="geometry" />
        </mxCell>
      </root>
    </mxGraphModel>
  </diagram>
  <diagram id="zsZe6GXys-Jg09tEFQ_3" name="bài 6">
    <mxGraphModel dx="776" dy="535" grid="1" gridSize="10" guides="1" tooltips="1" connect="1" arrows="1" fold="1" page="1" pageScale="1" pageWidth="827" pageHeight="1169" math="0" shadow="0">
      <root>
        <mxCell id="0" />
        <mxCell id="1" parent="0" />
        <mxCell id="pQXypuhd0Kk9KxKNGY7A-1" style="edgeStyle=orthogonalEdgeStyle;rounded=0;orthogonalLoop=1;jettySize=auto;html=1;entryX=0.5;entryY=0;entryDx=0;entryDy=0;" edge="1" parent="1" source="pQXypuhd0Kk9KxKNGY7A-2" target="pQXypuhd0Kk9KxKNGY7A-4">
          <mxGeometry relative="1" as="geometry" />
        </mxCell>
        <mxCell id="pQXypuhd0Kk9KxKNGY7A-2" value="Start" style="ellipse;whiteSpace=wrap;html=1;" vertex="1" parent="1">
          <mxGeometry x="310" y="80" width="120" height="80" as="geometry" />
        </mxCell>
        <mxCell id="pQXypuhd0Kk9KxKNGY7A-3" style="edgeStyle=orthogonalEdgeStyle;rounded=0;orthogonalLoop=1;jettySize=auto;html=1;entryX=0.5;entryY=0;entryDx=0;entryDy=0;" edge="1" parent="1" source="pQXypuhd0Kk9KxKNGY7A-4" target="pQXypuhd0Kk9KxKNGY7A-6">
          <mxGeometry relative="1" as="geometry" />
        </mxCell>
        <mxCell id="pQXypuhd0Kk9KxKNGY7A-4" value="a, b, c" style="shape=parallelogram;perimeter=parallelogramPerimeter;whiteSpace=wrap;html=1;fixedSize=1;" vertex="1" parent="1">
          <mxGeometry x="310" y="200" width="120" height="60" as="geometry" />
        </mxCell>
        <mxCell id="pQXypuhd0Kk9KxKNGY7A-5" style="edgeStyle=orthogonalEdgeStyle;rounded=0;orthogonalLoop=1;jettySize=auto;html=1;entryX=0.5;entryY=0;entryDx=0;entryDy=0;" edge="1" parent="1" source="pQXypuhd0Kk9KxKNGY7A-6" target="pQXypuhd0Kk9KxKNGY7A-7">
          <mxGeometry relative="1" as="geometry" />
        </mxCell>
        <mxCell id="pQXypuhd0Kk9KxKNGY7A-6" value="c, b, a" style="shape=parallelogram;perimeter=parallelogramPerimeter;whiteSpace=wrap;html=1;fixedSize=1;" vertex="1" parent="1">
          <mxGeometry x="310" y="290" width="120" height="60" as="geometry" />
        </mxCell>
        <mxCell id="pQXypuhd0Kk9KxKNGY7A-7" value="End" style="ellipse;whiteSpace=wrap;html=1;" vertex="1" parent="1">
          <mxGeometry x="310" y="390" width="120" height="80" as="geometry" />
        </mxCell>
      </root>
    </mxGraphModel>
  </diagram>
</mxfile>
